<svg id="グループ_42" data-name="グループ 42" xmlns="http://www.w3.org/2000/svg" width="206.252" height="60" viewBox="0 0 206.252 60">
  <g id="グループ_41" data-name="グループ 41" transform="translate(0)">
    <g id="グループ_36" data-name="グループ 36" transform="translate(15.419 4.957)">
      <path id="パス_27" data-name="パス 27" d="M42.591,20.667H60.725c.549,0,.993.741.993,1.655s-.444,1.655-.993,1.655H42.591c-.548,0-.993-.741-.993-1.655S42.043,20.667,42.591,20.667Z" transform="translate(-41.598 -20.667)" fill="#121212"/>
    </g>
    <g id="グループ_37" data-name="グループ 37" transform="translate(15.419)">
      <path id="パス_28" data-name="パス 28" d="M42.591,11.9H60.725c.549,0,.993.741.993,1.655s-.444,1.655-.993,1.655H42.591c-.548,0-.993-.741-.993-1.655S42.043,11.9,42.591,11.9Z" transform="translate(-41.598 -11.898)" fill="#121212"/>
    </g>
    <path id="パス_29" data-name="パス 29" d="M36.722,29.4l-.136.523A41.073,41.073,0,0,1,32.093,40.5a16.744,16.744,0,0,0-2.342,8.569c.011,8.877,7.011,15.766,16.284,16.021a17.074,17.074,0,0,0,12.5-4.71A15.656,15.656,0,0,0,63.266,49.05a16.733,16.733,0,0,0-2.4-8.651A38.316,38.316,0,0,1,56.526,30.28L56.3,29.4" transform="translate(-21.029 -20.34)" fill="#f3e729"/>
    <g id="グループ_38" data-name="グループ 38" transform="translate(23.825 47.439)">
      <path id="パス_30" data-name="パス 30" d="M58.121,99.782c.915,0,1.655.444,1.655.993v10.576c0,.548-.741.993-1.655.993s-1.654-.445-1.654-.993V100.775C56.466,100.226,57.208,99.782,58.121,99.782Z" transform="translate(-56.467 -99.782)" fill="#121212"/>
    </g>
    <g id="グループ_39" data-name="グループ 39" transform="translate(0 40.605)">
      <path id="パス_31" data-name="パス 31" d="M23.868,88.356c.647.647.856,1.485.469,1.873l-7.478,7.478c-.388.388-1.226.178-1.873-.468s-.855-1.484-.468-1.872L22,87.888C22.383,87.5,23.222,87.71,23.868,88.356Z" transform="translate(-14.323 -87.693)" fill="#121212"/>
    </g>
    <g id="グループ_40" data-name="グループ 40" transform="translate(41.866 40.604)">
      <path id="パス_32" data-name="パス 32" d="M89.043,88.356c.647-.647,1.485-.856,1.872-.468l7.479,7.479c.388.388.179,1.226-.469,1.872s-1.484.855-1.872.468l-7.478-7.479C88.187,89.84,88.4,89,89.043,88.356Z" transform="translate(-88.381 -87.693)" fill="#121212"/>
    </g>
    <path id="パス_33" data-name="パス 33" d="M59.393,29.4" transform="translate(-33.914 -19.504)" fill="#231815"/>
  </g>
  <path id="パス_34" data-name="パス 34" d="M16.94-5.1V-.74c0,.54-.14.68-.64.68a13.316,13.316,0,0,1-2.48-.26,4.369,4.369,0,0,1,.34,1.38c1.24.08,1.54.1,1.98.1A2.681,2.681,0,0,0,17.7.88a1.636,1.636,0,0,0,.5-1.44V-13.7a16.233,16.233,0,0,1,.08-1.96,15.126,15.126,0,0,1-1.9.08H12.06a16.939,16.939,0,0,1-1.94-.08,30.41,30.41,0,0,1,.1,3.44c0,5.3-.24,7.42-1,9.24A8.288,8.288,0,0,1,6.36.6a3.372,3.372,0,0,1,1.04.94A9.468,9.468,0,0,0,9.82-1.32,11.7,11.7,0,0,0,11.08-5.1Zm0-4.8v3.68H11.22c.12-1.22.18-1.94.24-3.68Zm0-1.12H11.48v-3.42h5.46ZM1.9-4.36a15.881,15.881,0,0,1-.12,2.1H3.14V-3.82H7v.92H8.28c-.04-.58-.06-.98-.06-1.94v-8.42c0-1.08.02-1.44.06-1.92-.48.04-.84.06-1.8.06H4.3c-1.34,0-1.84-.02-2.48-.06a16.122,16.122,0,0,1,.08,1.92Zm1.24-9.62H7v3.74H3.14Zm0,4.86H7v4.18H3.14ZM25.859-13.4a9.853,9.853,0,0,1,1.08-.1c3.04-.1,5.44-.24,6.08-.36a.774.774,0,0,1,.18-.02l.04.04-.08.08-.08.08-.28.28c-1.38,1.36-4.54,4.14-6.68,5.84a22.281,22.281,0,0,1-2.8,2.04l.9,1.28a12.835,12.835,0,0,1,8.42-3.42c2.7,0,4.3,1.14,4.3,3.06,0,1.7-1.1,2.92-3.2,3.5a5.725,5.725,0,0,0-.92-1.92,4.028,4.028,0,0,0-3.3-1.64c-1.66,0-2.9,1-2.9,2.34,0,1.84,1.62,2.88,4.44,2.88C35.5.56,38.4-1.5,38.4-4.62c0-2.56-2.14-4.2-5.48-4.2a10.134,10.134,0,0,0-4.9,1.24l-.04-.06a51.32,51.32,0,0,0,6.58-5.68,3.691,3.691,0,0,1,1.02-.84l-.84-1.1a2.045,2.045,0,0,1-.96.22c-1.8.14-4.46.26-6.12.26a9.236,9.236,0,0,1-1.88-.12ZM32.419-.74a7.2,7.2,0,0,1-1.46.14,5.11,5.11,0,0,1-2.24-.46,1.365,1.365,0,0,1-.8-1.22c0-.76.62-1.24,1.62-1.24C30.979-3.52,31.979-2.56,32.419-.74ZM44.8-14.18a10.821,10.821,0,0,1,.06,1.18c.1,4.92.38,7.48,1.08,9.38.68,1.92,1.72,3.04,2.84,3.04,1.42,0,2.34-1.34,3.32-4.84a6.393,6.393,0,0,1-1.18-1.14,14.39,14.39,0,0,1-1.04,3.42c-.3.66-.64,1-1,1-.76,0-1.58-1.38-2.02-3.42a34.25,34.25,0,0,1-.52-6.22,14.5,14.5,0,0,1,.14-2.38Zm10.12,1.7a17.663,17.663,0,0,1,4.16,9.86L60.5-3.2A19.15,19.15,0,0,0,59-8.54a17.36,17.36,0,0,0-2.86-4.56Z" transform="translate(62.524 36.66)"/>
  <path id="パス_35" data-name="パス 35" d="M1.572-14.346H3.535v5.928H11v-5.928h1.963V0H11V-6.709H3.535V0H1.572ZM23.2-14.736a6.568,6.568,0,0,1,5.625,2.441,7.912,7.912,0,0,1,1.426,4.873A8.527,8.527,0,0,1,28.617-2.08,6.468,6.468,0,0,1,23.158.42a6.525,6.525,0,0,1-5.205-2.187A8.26,8.26,0,0,1,16.263-7.1a8.481,8.481,0,0,1,1.445-4.98A6.262,6.262,0,0,1,23.2-14.736Zm.2,13.418a4.046,4.046,0,0,0,3.716-1.841,7.835,7.835,0,0,0,1.147-4.233,6.039,6.039,0,0,0-1.323-4.072,4.516,4.516,0,0,0-3.618-1.543,4.712,4.712,0,0,0-3.633,1.528,6.441,6.441,0,0,0-1.406,4.507,6.585,6.585,0,0,0,1.206,4.019A4.536,4.536,0,0,0,23.392-1.318ZM35.71-14.346v8.867a5.216,5.216,0,0,0,.586,2.6,3.079,3.079,0,0,0,2.93,1.563,3.442,3.442,0,0,0,3.359-1.689,5.378,5.378,0,0,0,.479-2.471v-8.867h1.973v8.057a9.321,9.321,0,0,1-.713,4.072q-1.309,2.6-4.941,2.6t-4.932-2.6a9.321,9.321,0,0,1-.713-4.072v-8.057ZM50.352-4.629a3.92,3.92,0,0,0,.576,1.982,3.819,3.819,0,0,0,3.408,1.426,6.033,6.033,0,0,0,1.992-.312A2.214,2.214,0,0,0,58.067-3.7a1.872,1.872,0,0,0-.732-1.67,7.4,7.4,0,0,0-2.324-.85L53.067-6.66a8.8,8.8,0,0,1-2.7-.947A3,3,0,0,1,49-10.293a4.135,4.135,0,0,1,1.338-3.174,5.368,5.368,0,0,1,3.789-1.24,6.581,6.581,0,0,1,3.833,1.089,3.93,3.93,0,0,1,1.577,3.481H57.716a3.6,3.6,0,0,0-.625-1.768,3.631,3.631,0,0,0-3.018-1.123A3.491,3.491,0,0,0,51.6-12.3a2.262,2.262,0,0,0-.752,1.68,1.64,1.64,0,0,0,.879,1.543,12.9,12.9,0,0,0,2.607.781l2.012.459a6.164,6.164,0,0,1,2.246.908,3.4,3.4,0,0,1,1.367,2.92A3.645,3.645,0,0,1,58.228-.605,7.763,7.763,0,0,1,54.2.42,6.024,6.024,0,0,1,50.011-.947a4.613,4.613,0,0,1-1.484-3.682Zm13.295-9.717H74.106v1.758H65.541v4.355h7.92v1.66h-7.92v4.863h8.711V0H63.647Z" transform="translate(132 36.736)"/>
</svg>
